<?xml version="1.0" encoding="UTF-8"?>
<svg width="24px" height="24px" viewBox="0 0 24 24" version="1.1" xmlns="http://www.w3.org/2000/svg">
    <g fill="currentColor">
        <path d="M12 2C8.13 2 5 3.13 5 4.5v3c0 1.37 3.13 2.5 7 2.5s7-1.13 7-2.5v-3c0-1.37-3.13-2.5-7-2.5z"/>
        <path d="M5 9.5v3c0 1.37 3.13 2.5 7 2.5s7-1.13 7-2.5v-3c0 1.37-3.13 2.5-7 2.5S5 10.87 5 9.5z"/>
        <path d="M5 14.5v3c0 1.37 3.13 2.5 7 2.5s7-1.13 7-2.5v-3c0 1.37-3.13 2.5-7 2.5S5 15.87 5 14.5z"/>
    </g>
</svg>
